<?xml version="1.0" encoding="UTF-8"?>
<svg width="1023px" height="1687px" viewBox="0 0 1023 1687" version="1.1" xmlns="http://www.w3.org/2000/svg" xmlns:xlink="http://www.w3.org/1999/xlink">
    <!-- Generator: Sketch 47.1 (45422) - http://www.bohemiancoding.com/sketch -->
    <title>Apartment</title>
    <desc>Created with Sketch.</desc>
    <defs>
        <rect id="path-1" x="1302" y="579" width="330" height="495"></rect>
        <rect id="path-2" x="0" y="0" width="240" height="368"></rect>
        <rect id="path-3" x="0" y="0" width="187" height="405"></rect>
        <rect id="path-4" x="1052" y="172" width="577" height="406"></rect>
        <rect id="path-5" x="256" y="170" width="784" height="408"></rect>
    </defs>
    <g id="Page-1" stroke="none" stroke-width="1" fill="none" fill-rule="evenodd">
        <g id="Apartment" transform="translate(537.500000, 915.000000) rotate(90.000000) translate(-537.500000, -915.000000) translate(-380.000000, 323.000000)">
            <polygon id="group.hallway" stroke="#979797" fill="#76B6F8" points="1292 588 862 588 862 1074 1038.98147 1074 1038.98147 695.864417 1292 695.864417"></polygon>
            <g id="hallway" transform="translate(914.000000, 666.000000)">
                <g id="hallway_light" transform="translate(46.000000, 180.000000) rotate(-90.000000) translate(-46.000000, -180.000000) translate(0.000000, 133.000000)">
                    <ellipse id="Oval" stroke="#000000" stroke-width="5" fill="#899AB5" cx="46" cy="47" rx="46" ry="47"></ellipse>
                    <g id="light.hallway" transform="translate(22.000000, 15.326087)" fill-rule="nonzero" fill="#000000">
                        <path d="M22.5,2.85858294e-15 C10.0735931,-1.42929147e-15 2.85485921e-15,10.0867326 0,22.5293478 C2.85485921e-15,30.1893261 3.825,36.9159457 9.64285714,41.003413 L9.64285714,48.2771739 C9.64285714,50.0546904 11.0819419,51.4956522 12.8571429,51.4956522 L32.1428571,51.4956522 C33.9180581,51.4956522 35.3571429,50.0546904 35.3571429,48.2771739 L35.3571429,41.003413 C41.175,36.9159457 45,30.1893261 45,22.5293478 C45,10.0867326 34.9264069,4.2878744e-15 22.5,0 L22.5,2.85858294e-15 Z M12.8571429,61.151087 C12.8571429,62.9286034 14.2962276,64.3695652 16.0714286,64.3695652 L28.9285714,64.3695652 C30.7037724,64.3695652 32.1428571,62.9286034 32.1428571,61.151087 L32.1428571,57.9326087 L12.8571429,57.9326087 L12.8571429,61.151087 Z" id="Shape"></path>
                    </g>
                </g>
                <text id="HALL-7.5m²" transform="translate(41.463431, 31.174895) rotate(-90.000000) translate(-41.463431, -31.174895) " font-family="Helvetica" font-size="24" font-weight="normal" fill="#000000">
                    <tspan x="10.4634312" y="25.1748949">HALL</tspan>
                    <tspan x="10.4634312" y="54.1748949">7.5m²</tspan>
                </text>
            </g>
            <g id="group.kitchen">
                <use fill="#CFE9FF" fill-rule="evenodd" xlink:href="#path-1"></use>
                <rect stroke="#979797" stroke-width="1" x="1302.5" y="579.5" width="329" height="494"></rect>
            </g>
            <g id="kitchen" transform="translate(1410.000000, 714.000000)">
                <g transform="translate(158.000000, 46.000000) rotate(-90.000000) translate(-158.000000, -46.000000) translate(112.000000, -1.000000)">
                    <ellipse id="Oval" stroke="#000000" stroke-width="5" fill="#899AB5" cx="46" cy="47" rx="46" ry="47"></ellipse>
                    <g id="light.kitchen" transform="translate(22.000000, 15.326087)" fill-rule="nonzero" fill="#000000">
                        <path d="M22.5,2.85858294e-15 C10.0735931,-1.42929147e-15 2.85485921e-15,10.0867326 0,22.5293478 C2.85485921e-15,30.1893261 3.825,36.9159457 9.64285714,41.003413 L9.64285714,48.2771739 C9.64285714,50.0546904 11.0819419,51.4956522 12.8571429,51.4956522 L32.1428571,51.4956522 C33.9180581,51.4956522 35.3571429,50.0546904 35.3571429,48.2771739 L35.3571429,41.003413 C41.175,36.9159457 45,30.1893261 45,22.5293478 C45,10.0867326 34.9264069,4.2878744e-15 22.5,0 L22.5,2.85858294e-15 Z M12.8571429,61.151087 C12.8571429,62.9286034 14.2962276,64.3695652 16.0714286,64.3695652 L28.9285714,64.3695652 C30.7037724,64.3695652 32.1428571,62.9286034 32.1428571,61.151087 L32.1428571,57.9326087 L12.8571429,57.9326087 L12.8571429,61.151087 Z" id="Shape"></path>
                    </g>
                </g>
                <text id="KITCHEN-9m²" transform="translate(29.865426, 119.825108) rotate(-90.000000) translate(-29.865426, -119.825108) " font-family="Helvetica" font-size="24" font-weight="normal" fill="#000000">
                    <tspan x="-23.1345741" y="113.825108">KITCHEN</tspan>
                    <tspan x="-23.1345741" y="142.825108">    9m²</tspan>
                </text>
            </g>
            <g id="group.bathroom" transform="translate(1052.000000, 706.000000)">
                <g id="bathroom">
                    <use fill="#3C92DB" fill-rule="evenodd" xlink:href="#path-2"></use>
                    <rect stroke="#979797" stroke-width="1" x="0.5" y="0.5" width="239" height="367"></rect>
                </g>
                <text id="BATHROOM-5m²" transform="translate(120.347635, 90.651981) rotate(-90.000000) translate(-120.347635, -90.651981) " font-family="Helvetica" font-size="24" font-weight="normal" fill="#000000">
                    <tspan x="47.3476345" y="84.6519806">BATHROOM</tspan>
                    <tspan x="47.3476345" y="113.651981">       5m²</tspan>
                </text>
            </g>
            <g id="group.balcony" transform="translate(61.000000, 170.000000)">
                <g id="balcony">
                    <use fill="#97C7FF" fill-rule="evenodd" xlink:href="#path-3"></use>
                    <rect stroke="#979797" stroke-width="1" x="0.5" y="0.5" width="186" height="404"></rect>
                </g>
                <text id="BALCONY-3m²" transform="translate(89.828366, 179.874649) rotate(-90.000000) translate(-89.828366, -179.874649) " font-family="Helvetica" font-size="24" font-weight="normal" fill="#000000">
                    <tspan x="32.3283656" y="173.874649">BALCONY</tspan>
                    <tspan x="32.3283656" y="202.874649">    3m²</tspan>
                </text>
            </g>
            <g id="group.bed_room">
                <use fill="#ABD7FF" fill-rule="evenodd" xlink:href="#path-4"></use>
                <rect stroke="#979797" stroke-width="1" x="1052.5" y="172.5" width="576" height="405"></rect>
            </g>
            <g id="bed_room" transform="translate(1276.000000, 182.000000)">
                <text id="BEDROOM-13.5m²" transform="translate(62.500000, 195.000000) rotate(-90.000000) translate(-62.500000, -195.000000) " font-family="Helvetica" font-size="24" font-weight="normal" fill="#000000">
                    <tspan x="0" y="189">BEDROOM</tspan>
                    <tspan x="0" y="218">     13.5m²</tspan>
                </text>
                <g id="yellow_light" transform="translate(297.000000, 46.000000) rotate(-90.000000) translate(-297.000000, -46.000000) translate(251.000000, 0.000000)">
                    <circle id="Oval" stroke="#000000" stroke-width="5" fill="#899AB5" cx="46" cy="46" r="46"></circle>
                    <g id="light.yellow_light" transform="translate(22.000000, 15.000000)" fill-rule="nonzero" fill="#000000">
                        <path d="M22.5,2.79776202e-15 C10.0735931,-1.39888101e-15 2.85485921e-15,9.87212127 0,22.05 C2.85485921e-15,29.547 3.825,36.1305 9.64285714,40.131 L9.64285714,47.25 C9.64285714,48.989697 11.0819419,50.4 12.8571429,50.4 L32.1428571,50.4 C33.9180581,50.4 35.3571429,48.989697 35.3571429,47.25 L35.3571429,40.131 C41.175,36.1305 45,29.547 45,22.05 C45,9.87212127 34.9264069,4.19664303e-15 22.5,0 L22.5,2.79776202e-15 Z M12.8571429,59.85 C12.8571429,61.589697 14.2962276,63 16.0714286,63 L28.9285714,63 C30.7037724,63 32.1428571,61.589697 32.1428571,59.85 L32.1428571,56.7 L12.8571429,56.7 L12.8571429,59.85 Z" id="Shape"></path>
                    </g>
                </g>
            </g>
            <g id="group.living_room">
                <use fill="#4998FF" fill-rule="evenodd" xlink:href="#path-5"></use>
                <rect stroke="#979797" stroke-width="1" x="256.5" y="170.5" width="783" height="407"></rect>
            </g>
            <g id="living_room" transform="translate(268.000000, 180.000000)">
                <text id="LIVING-ROOM-18m²" transform="translate(359.500000, 211.000000) rotate(-90.000000) translate(-359.500000, -211.000000) " font-family="Helvetica" font-size="24" font-weight="normal" fill="#000000">
                    <tspan x="279" y="205">LIVING ROOM</tspan>
                    <tspan x="279" y="234">        18m²</tspan>
                </text>
                <g id="paperlight" transform="translate(46.000000, 46.000000) rotate(-90.000000) translate(-46.000000, -46.000000) ">
                    <circle id="Oval" stroke="#000000" stroke-width="5" fill="#899AB5" cx="46" cy="46" r="46"></circle>
                    <g id="light.paperlight" transform="translate(22.000000, 15.000000)" fill-rule="nonzero" fill="#000000">
                        <path d="M22.5,2.79776202e-15 C10.0735931,-1.39888101e-15 2.85485921e-15,9.87212127 0,22.05 C2.85485921e-15,29.547 3.825,36.1305 9.64285714,40.131 L9.64285714,47.25 C9.64285714,48.989697 11.0819419,50.4 12.8571429,50.4 L32.1428571,50.4 C33.9180581,50.4 35.3571429,48.989697 35.3571429,47.25 L35.3571429,40.131 C41.175,36.1305 45,29.547 45,22.05 C45,9.87212127 34.9264069,4.19664303e-15 22.5,0 L22.5,2.79776202e-15 Z M12.8571429,59.85 C12.8571429,61.589697 14.2962276,63 16.0714286,63 L28.9285714,63 C30.7037724,63 32.1428571,61.589697 32.1428571,59.85 L32.1428571,56.7 L12.8571429,56.7 L12.8571429,59.85 Z" id="Shape"></path>
                    </g>
                </g>
                <g id="desk" transform="translate(363.000000, 46.000000) rotate(-90.000000) translate(-363.000000, -46.000000) translate(317.000000, 0.000000)">
                    <circle id="Oval" stroke="#000000" stroke-width="5" fill="#899AB5" cx="46" cy="46" r="46"></circle>
                    <g id="light.desk" transform="translate(22.000000, 15.000000)" fill-rule="nonzero" fill="#000000">
                        <path d="M22.5,2.79776202e-15 C10.0735931,-1.39888101e-15 2.85485921e-15,9.87212127 0,22.05 C2.85485921e-15,29.547 3.825,36.1305 9.64285714,40.131 L9.64285714,47.25 C9.64285714,48.989697 11.0819419,50.4 12.8571429,50.4 L32.1428571,50.4 C33.9180581,50.4 35.3571429,48.989697 35.3571429,47.25 L35.3571429,40.131 C41.175,36.1305 45,29.547 45,22.05 C45,9.87212127 34.9264069,4.19664303e-15 22.5,0 L22.5,2.79776202e-15 Z M12.8571429,59.85 C12.8571429,61.589697 14.2962276,63 16.0714286,63 L28.9285714,63 C30.7037724,63 32.1428571,61.589697 32.1428571,59.85 L32.1428571,56.7 L12.8571429,56.7 L12.8571429,59.85 Z" id="Shape"></path>
                    </g>
                </g>
                <g id="big_light" transform="translate(715.000000, 48.000000) rotate(-90.000000) translate(-715.000000, -48.000000) translate(669.000000, 2.000000)">
                    <circle id="Oval" stroke="#000000" stroke-width="5" fill="#899AB5" cx="46" cy="46" r="46"></circle>
                    <g id="light.big_light" transform="translate(22.000000, 15.000000)" fill-rule="nonzero" fill="#000000">
                        <path d="M22.5,2.79776202e-15 C10.0735931,-1.39888101e-15 2.85485921e-15,9.87212127 0,22.05 C2.85485921e-15,29.547 3.825,36.1305 9.64285714,40.131 L9.64285714,47.25 C9.64285714,48.989697 11.0819419,50.4 12.8571429,50.4 L32.1428571,50.4 C33.9180581,50.4 35.3571429,48.989697 35.3571429,47.25 L35.3571429,40.131 C41.175,36.1305 45,29.547 45,22.05 C45,9.87212127 34.9264069,4.19664303e-15 22.5,0 L22.5,2.79776202e-15 Z M12.8571429,59.85 C12.8571429,61.589697 14.2962276,63 16.0714286,63 L28.9285714,63 C30.7037724,63 32.1428571,61.589697 32.1428571,59.85 L32.1428571,56.7 L12.8571429,56.7 L12.8571429,59.85 Z" id="Shape"></path>
                    </g>
                </g>
            </g>
            <g id="floorplan" transform="translate(901.500000, 563.500000) rotate(-90.000000) translate(-901.500000, -563.500000) translate(338.000000, -334.000000)">
                <polygon id="Shape" fill="#000000" fill-rule="nonzero" points="536.828125 1009.39844 536.828125 1004.52344 549.498735 1004.52344 549.498735 1036.03125 633.726562 1036.03125 633.726562 1049.40625 549.498735 1049.40625 552.808594 1624.68359 954.914062 1624.68359 954.914062 1049.40625 727.541386 1049.40625 727.541386 1035.69141 954.914062 1036.03125 955.820312 252.105469 656.960938 252.21875 656.960938 238.503906 956.273438 238.503906 956.273438 60.34375 552.582031 60.34375 552.582031 238.503906 560.742188 238.503906 560.742188 252.21875 553.714844 252.21875 553.828125 859.796875 539.773438 859.796875 62.753906 859.910156 62.753906 893.003906 33.96875 893.003906 33.96875 831.578125 525.496094 831.464844 525.382812 223.886719 545.78125 223.886719 545.78125 53.546875 963.074219 53.546875 963.074219 223.773438 984.152344 223.773438 984.269531 1653.01953 33.96875 1653.01953 33.96875 1009.39844 62.300781 1009.39844 62.753906 1035.69141 202.039062 1035.80469 202.039062 1049.40625 62.300781 1049.40625 62.300781 1244.56641 308.460938 1244.56641 308.460938 1286.04688 419.300781 1286.04688 419.300781 1049.40625 298.714844 1049.40625 298.714844 1035.91797 433.242188 1036.03125 432.5625 1286.04688 442.875 1286.04688 442.875 1299.64453 432.5625 1299.64453 62.753906 1299.64453 62.753906 1624.68359 539.433594 1624.68359 539.773438 1299.64453 533.769531 1299.64453 533.769531 1286.04688 539.773438 1286.04688"></polygon>
                <g id="Doors">
                    <path d="M634.00725,1036.00718 C687.077564,1036.00706 730.099681,1079.46548 730.099877,1133.07095" id="Shape" stroke="#636363" stroke-width="0.970632011" transform="translate(682.053564, 1084.539062) scale(-1, 1) rotate(-179.991440) translate(-682.053564, -1084.539062) "></path>
                    <path d="M634,1037 C634.007813,1069.35547 634.011719,1101.71094 634.015625,1134.0625 C637.25,1134.0625 640.488282,1134.0625 643.722656,1134.0625 C643.71875,1101.70703 643.710938,1069.35547 643.707032,1037 C640.472656,1037 637.238282,1037 634,1037 Z" id="Shape" fill="#636363" fill-rule="nonzero"></path>
                    <path d="M57.3698532,892.873737 C116.245477,892.874111 163.971684,940.732383 163.971304,999.768314" id="Shape" stroke="#636363" stroke-width="1.291388" transform="translate(110.670579, 946.321025) scale(-1, 1) rotate(-90.000366) translate(-110.670579, -946.321025) "></path>
                    <path d="M57,1009.91406 C92.6989964,1009.91406 128.397993,1009.91406 164.09375,1009.91406 C164.09375,1005.60938 164.09375,1001.30469 164.09375,997 C128.397993,997 92.6989964,997 57,997 C57,1001.30469 57,1005.60938 57,1009.91406 Z" id="Shape" fill="#636363" fill-rule="nonzero"></path>
                    <path d="M202.428911,1042.21211 C255.292225,1042.21177 298.145485,1085.49877 298.145324,1138.89334" id="Shape" stroke="#636363" stroke-width="0.96683544" transform="translate(250.287118, 1090.552727) scale(-1, 1) rotate(179.945336) translate(-250.287118, -1090.552727) "></path>
                    <path d="M201.992188,1042.64844 C201.960938,1074.875 201.929688,1107.10547 201.898438,1139.33203 C205.121094,1139.33594 208.34375,1139.33984 211.566406,1139.33984 C211.597656,1107.11328 211.628906,1074.88672 211.660156,1042.65625 C208.4375,1042.65625 205.214844,1042.65234 201.992188,1042.64844 Z" id="Shape" fill="#636363" fill-rule="nonzero"></path>
                    <path d="M202.473423,1042.20239 C255.336689,1042.20323 298.191459,1085.48906 298.190611,1138.88748" id="Shape" stroke="#636363" stroke-width="0.966835" transform="translate(250.332017, 1090.544936) scale(-1, 1) rotate(179.999091) translate(-250.332017, -1090.544936) "></path>
                    <path d="M201.992188,1042.68359 C201.992188,1074.91406 201.988281,1107.14062 201.988281,1139.36719 C205.210938,1139.36719 208.433594,1139.36719 211.65625,1139.36719 C211.660156,1107.14062 211.660156,1074.91406 211.660156,1042.68359 C208.4375,1042.68359 205.214844,1042.68359 201.992188,1042.68359 Z" id="Shape" fill="#636363" fill-rule="nonzero"></path>
                    <path d="M443.000483,1284.73098 C492.71144,1284.73046 533.01267,1325.43707 533.009298,1375.65194" id="Shape" stroke="#636363" stroke-width="0.909217" transform="translate(488.004891, 1330.191461) scale(-1, 1) rotate(-179.999391) translate(-488.004891, -1330.191461) "></path>
                    <path d="M443,1286 C443,1316.30469 443,1346.61328 443,1376.92188 C446.03125,1376.92188 449.0625,1376.92188 452.09375,1376.92188 C452.09375,1346.61328 452.09375,1316.30469 452.089844,1286 C449.0625,1286 446.03125,1286 443,1286 Z" id="Shape" fill="#636363" fill-rule="nonzero"></path>
                    <path d="M561.264517,149.493281 C613.90126,149.496389 656.57061,192.596584 656.571377,245.764576" id="Shape" stroke="#636363" stroke-width="0.962699002" transform="translate(608.917947, 197.628929) scale(-1, 1) rotate(-0.003383) translate(-608.917947, -197.628929) "></path>
                    <path d="M657.050781,245.285156 C657.050781,213.195312 657.054688,181.105469 657.054688,149.015625 C653.847656,149.015625 650.636719,149.015625 647.429688,149.015625 C647.425781,181.105469 647.425781,213.195312 647.421875,245.285156 C650.632812,245.285156 653.839844,245.285156 657.050781,245.285156 Z" id="Shape" fill="#636363" fill-rule="nonzero"></path>
                    <path d="M955.437289,1049.83952 L1015.34213,1049.83952" id="Shape" stroke="#808080" stroke-width="1.00000002"></path>
                    <path d="M954.980434,1624.00003 L1014.48043,1624" id="Shape" stroke="#808080" stroke-width="1.00000002"></path>
                    <polyline id="Shape" stroke="#808080" stroke-width="1.00000002" fill="#808080" fill-rule="nonzero" points="1011.83594 1051 1014.66803 1055.55669 1009 1055.55669 1011.83594 1051"></polyline>
                    <polyline id="Shape" stroke="#808080" stroke-width="1.00000002" fill="#808080" fill-rule="nonzero" points="1011.64449 1624.76565 1008.81252 1619.09762 1014.48043 1619.09762 1011.64449 1624.76565"></polyline>
                    <path d="M1011.63667,1054.32234 L1011.64449,1311.32234 M1011.65616,1338.70336 L1011.65616,1624.76565" id="Shape" stroke="#808080" stroke-width="1.00000002"></path>
                    <path d="M954,1624.7695 L954,1684.2695" id="Shape" stroke="#808080" stroke-width="1.00000002"></path>
                    <path d="M552,1624.78129 L552,1684.28129" id="Shape" stroke="#808080" stroke-width="1.00000002"></path>
                    <polyline id="Shape" stroke="#808080" stroke-width="1.00000002" fill="#808080" fill-rule="nonzero" points="954.980434 1681.43356 949.312521 1684.2695 949.312521 1678.60159 954.980434 1681.43356"></polyline>
                    <polyline id="Shape" stroke="#808080" stroke-width="1.00000002" fill="#808080" fill-rule="nonzero" points="552.855427 1681.4492 558.523453 1678.61326 558.523453 1684.28129 552.855427 1681.4492"></polyline>
                    <path d="M954.980434,1681.43356 L767.97659,1681.44138 M739.859385,1681.44138 L552.855427,1681.4492" id="Shape" stroke="#808080" stroke-width="1.00000002"></path>
                    <path d="M955.914085,252.000069 L1015.41408,252" id="Shape" stroke="#808080" stroke-width="1.00000002"></path>
                    <path d="M955.5,1035.5 L1015.11275,1035.5" id="Shape" stroke="#808080" stroke-width="1.00000002"></path>
                    <polyline id="Shape" stroke="#808080" stroke-width="1.00000002" fill="#808080" fill-rule="nonzero" points="1012.582 252.074179 1015.41408 257.742205 1009.75002 257.742205 1012.582 252.074179"></polyline>
                    <polyline id="Shape" stroke="#808080" stroke-width="1.00000002" fill="#808080" fill-rule="nonzero" points="1012.67969 1034.38235 1009.8476 1030.04991 1015.51166 1030.04687 1012.67969 1034.38235"></polyline>
                    <path d="M1012.63277,252.074179 L1012.63277,616.957663 M1012.73042,646.055561 L1012.73042,1030.12105" id="Shape" stroke="#808080" stroke-width="1.00000002"></path>
                    <path d="M62.7070338,1035 L2.5,1035" id="Shape" stroke="#808080" stroke-width="1.00000002"></path>
                    <path d="M62.7070338,859 L1.5,859" id="Shape" stroke="#808080" stroke-width="1.00000002"></path>
                    <polyline id="Shape" stroke="#808080" stroke-width="1.00000002" fill="#808080" fill-rule="nonzero" points="5.83208653 1034.66797 3 1029 8.6680264 1029 5.83208653 1034.66797"></polyline>
                    <polygon id="Shape" stroke="#808080" stroke-width="1.00000002" fill="#808080" fill-rule="nonzero" points="8.6680264 865.668026 3 865.668026 5.83593987 860"></polygon>
                    <path d="M5.70442709,1035.48899 L5.70442709,961.250728 M5.70442709,932.968834 L5.70629709,858.730572" id="Shape" stroke="#808080" stroke-width="1.00000002"></path>
                    <path d="M62.000138,859.960918 L62,800.460921" id="Shape" stroke="#808080" stroke-width="1.00000002"></path>
                    <path d="M540.000138,859.839878 L540,800.339881" id="Shape" stroke="#808080" stroke-width="1.00000002"></path>
                    <polyline id="Shape" stroke="#808080" stroke-width="1.00000002" fill="#808080" fill-rule="nonzero" points="62.6913938 803.293007 68.3594202 800.460921 68.3594202 806.124981 62.6913938 803.293007"></polyline>
                    <polyline id="Shape" stroke="#808080" stroke-width="1.00000002" fill="#808080" fill-rule="nonzero" points="540.902346 803.175821 535.238286 806.007794 535.234376 800.343734 540.902346 803.175821"></polyline>
                    <path d="M62.6913938,803.293007 L287.73829,803.238267 M315.859349,803.230447 L540.902346,803.175821" id="Shape" stroke="#808080" stroke-width="1.00000002"></path>
                    <path d="M62.3742431,1288.73051 L3.17152239,1288.73051" id="Shape" stroke="#808080" stroke-width="1.00000002"></path>
                    <path d="M62.2382853,1049 L2.73828807,1049" id="Shape" stroke="#808080" stroke-width="1.00000002"></path>
                    <polyline id="Shape" stroke="#808080" stroke-width="1.00000002" fill="#808080" fill-rule="nonzero" points="5.57026127 1288.10651 2.73828807 1284.73051 8.40620114 1284.73051 5.57026127 1288.10651"></polyline>
                    <polyline id="Shape" stroke="#808080" stroke-width="1.00000002" fill="#808080" fill-rule="nonzero" points="5.57422794 1049.4844 8.40620114 1055.14846 2.73828807 1055.14846 5.57422794 1049.4844"></polyline>
                    <path d="M5.57422794,1284.96977 L5.57819446,1184.19696 M5.57819446,1150.25243 L5.57819446,1049.4844" id="Shape" stroke="#808080" stroke-width="1.00000002"></path>
                    <path d="M539,1624.73823 L539,1684.23823" id="Shape" stroke="#808080" stroke-width="1.00000002"></path>
                    <path d="M62,1624.73438 L62,1684.23438" id="Shape" stroke="#808080" stroke-width="1.00000002"></path>
                    <polyline id="Shape" stroke="#808080" stroke-width="1.00000002" fill="#808080" fill-rule="nonzero" points="539.484384 1681.40626 533.816358 1684.23823 533.816358 1678.57032 539.484384 1681.40626"></polyline>
                    <polyline id="Shape" stroke="#808080" stroke-width="1.00000002" fill="#808080" fill-rule="nonzero" points="62.6523134 1681.40229 68.3203398 1678.57032 68.3203398 1684.23438 62.6523134 1681.40229"></polyline>
                    <path d="M539.484384,1681.40626 L315.128935,1681.40229 M287.007763,1681.40229 L62.6523134,1681.40229" id="Shape" stroke="#808080" stroke-width="1.00000002"></path>
                    <path d="M62.6523134,1624 L3.15231622,1624.00003" id="Shape" stroke="#808080" stroke-width="1.00000002"></path>
                    <path d="M62.6484601,1299 L3.14846288,1299" id="Shape" stroke="#808080" stroke-width="1.00000002"></path>
                    <polyline id="Shape" stroke="#808080" stroke-width="1.00000002" fill="#808080" fill-rule="nonzero" points="5.98825608 1624.73823 3.15231622 1619.07032 8.82034262 1619.07032 5.98825608 1624.73823"></polyline>
                    <polyline id="Shape" stroke="#808080" stroke-width="1.00000002" fill="#808080" fill-rule="nonzero" points="5.98440275 1299.65235 8.81637595 1305.32026 3.14846288 1305.32026 5.98440275 1299.65235"></polyline>
                    <path d="M5.98825608,1624.73823 L5.98440275,1476.25389 M5.98440275,1448.13283 L5.98440275,1299.65235" id="Shape" stroke="#808080" stroke-width="1.00000002"></path>
                    <path d="M956.386676,60 L1015.88667,60.000035" id="Shape" stroke="#808080" stroke-width="1.00000002"></path>
                    <path d="M956.375003,238 L1015.875,238.000035" id="Shape" stroke="#808080" stroke-width="1.00000002"></path>
                    <polyline id="Shape" stroke="#808080" stroke-width="1.00000002" fill="#808080" fill-rule="nonzero" points="1013.05073 60.2930069 1015.88667 65.96092 1010.21876 65.96092 1013.05073 60.2930069"></polyline>
                    <polyline id="Shape" stroke="#808080" stroke-width="1.00000002" fill="#808080" fill-rule="nonzero" points="1013.04291 238.507852 1010.21094 232.839825 1015.875 232.839825 1013.04291 238.507852"></polyline>
                    <path d="M1013.05073,60.2930069 L1013.04688,135.339843 M1013.04688,163.460902 L1013.04291,238.507852" id="Shape" stroke="#808080" stroke-width="1.00000002"></path>
                    <path d="M552.613235,238.000034 L493.113238,238" id="Shape" stroke="#808080" stroke-width="1.00000002"></path>
                    <path d="M552.617202,60 L493.117205,60" id="Shape" stroke="#808080" stroke-width="1.00000002"></path>
                    <polyline id="Shape" stroke="#808080" stroke-width="1.00000002" fill="#808080" fill-rule="nonzero" points="495.945325 238.476572 493.113238 232.812512 498.777298 232.812512 495.945325 238.476572"></polyline>
                    <polyline id="Shape" stroke="#808080" stroke-width="1.00000002" fill="#808080" fill-rule="nonzero" points="495.949178 60.2773669 498.785118 65.94528 493.117205 65.94528 495.949178 60.2773669"></polyline>
                    <path d="M495.945325,238.476572 L495.945325,163.437555 M495.949178,135.316383 L495.949178,60.2773669" id="Shape" stroke="#808080" stroke-width="1.00000002"></path>
                    <path d="M552,60.2773669 L552,0.777369745" id="Shape" stroke="#808080" stroke-width="1.00000002"></path>
                    <path d="M956,60.2890403 L956,0.789043078" id="Shape" stroke="#808080" stroke-width="1.00000002"></path>
                    <polyline id="Shape" stroke="#808080" stroke-width="1.00000002" fill="#808080" fill-rule="nonzero" points="552.617202 3.61330961 558.285115 0.781223078 558.285115 6.44528281 552.617202 3.61330961"></polyline>
                    <polyline id="Shape" stroke="#808080" stroke-width="1.00000002" fill="#808080" fill-rule="nonzero" points="956.386676 3.62498294 950.718763 6.45706948 950.718763 0.789043078 956.386676 3.62498294"></polyline>
                    <path d="M552.617202,3.61330961 L740.441353,3.61716294 M768.562525,3.61716294 L956.386676,3.62498294" id="Shape" stroke="#808080" stroke-width="1.00000002"></path>
                </g>
            </g>
            <g id="media_player.speaker" transform="translate(1472.000000, 222.000000) rotate(-90.000000) translate(-1472.000000, -222.000000) translate(1432.000000, 182.000000)">
                <polygon id="Shape" points="0 0 80 0 80 80 0 80"></polygon>
                <path d="M67.4698795,6.74698795 L26.9879518,6.74698795 C23.2771084,6.74698795 20.2409639,9.78313253 20.2409639,13.4939759 L20.2409639,53.9759036 C20.2409639,57.686747 23.2771084,60.7228916 26.9879518,60.7228916 L67.4698795,60.7228916 C71.1807229,60.7228916 74.2168675,57.686747 74.2168675,53.9759036 L74.2168675,13.4939759 C74.2168675,9.78313253 71.1807229,6.74698795 67.4698795,6.74698795 Z M60.7228916,23.6144578 L50.6024096,23.6144578 L50.6024096,42.1686747 C50.6024096,46.8240964 46.8240964,50.6024096 42.1686747,50.6024096 C37.513253,50.6024096 33.7349398,46.8240964 33.7349398,42.1686747 C33.7349398,37.513253 37.513253,33.7349398 42.1686747,33.7349398 C44.0915663,33.7349398 45.8120482,34.3759036 47.2289157,35.4554217 L47.2289157,16.8674699 L60.7228916,16.8674699 L60.7228916,23.6144578 Z M13.4939759,20.2409639 L6.74698795,20.2409639 L6.74698795,67.4698795 C6.74698795,71.1807229 9.78313253,74.2168675 13.4939759,74.2168675 L60.7228916,74.2168675 L60.7228916,67.4698795 L13.4939759,67.4698795 L13.4939759,20.2409639 Z" fill="#000000" fill-rule="nonzero"></path>
            </g>
            <g id="Labels" transform="translate(0.000000, 106.000000)" font-family="Helvetica" fill="#000000" font-weight="normal">
                <text id="Apartment-56m²" transform="translate(152.571759, 770.482038) rotate(-90.000000) translate(-152.571759, -770.482038) " font-size="36">
                    <tspan x="69.0717586" y="762.482038">Apartment</tspan>
                    <tspan x="69.0717586" y="805.482038">56m²</tspan>
                </text>
                <text id="1.5" transform="translate(950.500000, 1016.000000) rotate(-90.000000) translate(-950.500000, -1016.000000) " font-size="12">
                    <tspan x="942" y="1020">1.5</tspan>
                </text>
                <text id="4.5" transform="translate(1329.500000, 9.000000) rotate(-90.000000) translate(-1329.500000, -9.000000) " font-size="12">
                    <tspan x="1321" y="13">4.5</tspan>
                </text>
                <text id="6" transform="translate(634.500000, 9.000000) rotate(-90.000000) translate(-634.500000, -9.000000) " font-size="12">
                    <tspan x="631" y="13">6</tspan>
                </text>
                <text id="1" transform="translate(153.500000, 9.000000) rotate(-90.000000) translate(-153.500000, -9.000000) " font-size="12">
                    <tspan x="150" y="13">1</tspan>
                </text>
                <text id="3" transform="translate(7.500000, 266.000000) rotate(-90.000000) translate(-7.500000, -266.000000) " font-size="12">
                    <tspan x="4" y="270">3</tspan>
                </text>
                <text id="1" transform="translate(153.500000, 525.000000) rotate(-90.000000) translate(-153.500000, -525.000000) " font-size="12">
                    <tspan x="150" y="529">1</tspan>
                </text>
                <text id="3.5" transform="translate(807.500000, 720.000000) rotate(-90.000000) translate(-807.500000, -720.000000) " font-size="12">
                    <tspan x="799" y="724">3.5</tspan>
                </text>
                <text id="2" transform="translate(1171.500000, 1015.000000) rotate(-90.000000) translate(-1171.500000, -1015.000000) " font-size="12">
                    <tspan x="1168" y="1019">2</tspan>
                </text>
                <text id="2.5" transform="translate(1467.500000, 1015.000000) rotate(-90.000000) translate(-1467.500000, -1015.000000) " font-size="12">
                    <tspan x="1459" y="1019">2.5</tspan>
                </text>
                <text id="3.5" transform="translate(1684.500000, 720.000000) rotate(-90.000000) translate(-1684.500000, -720.000000) " font-size="12">
                    <tspan x="1676" y="724">3.5</tspan>
                </text>
                <text id="3" transform="translate(1684.500000, 266.000000) rotate(-90.000000) translate(-1684.500000, -266.000000) " font-size="12">
                    <tspan x="1681" y="270">3</tspan>
                </text>
            </g>
        </g>
    </g>
</svg>